# xmcd
# Copyright (C) 1995-1998 Ti Kan
#
# Track frame offsets:
#       150
#       13950
#       37514
#       52571
#       76346
#       91271
#       108671
#       124271
#       140696
#       160571
#       177793
#       193798
#       209861
#       230711
#       245786
#       261761
#
# Disc length: 3700 seconds
#
# Revision: 14
# Processed by: cddbd v1.5.2PL0 Copyright (c) Steve Scherf et al.
# Submitted via: CD-Transfer v1.0
#
DISCID=da0e7210
DTITLE=Pussycat Dolls The Feat. Snoop Dog - 
DYEAR=09
DGENRE=
TTITLE0=I Get It In (Edit)
TTITLE1=Beautiful
TTITLE2=Diva
TTITLE3=Crack A Botlle (Lyrics!)
TTITLE4=Walking On A Dream
TTITLE5=Takin' Back My Love
TTITLE6=Right Round
TTITLE7=Dilly Dally
TTITLE8=Violent And Young (Lirycs!)
TTITLE9=Don't Stop (Radio Edit Clean)
TTITLE10=My Life Would Suck Without You
TTITLE11=I Got You Dancing
TTITLE12=Out Of The Sky
TTITLE13=Listen To Your Friends
TTITLE14=Mars Needs Woman
TTITLE15=Bottle Pop
EXTD=
EXTT0=
EXTT1=
EXTT2=
EXTT3=
EXTT4=
EXTT5=
EXTT6=
EXTT7=
EXTT8=
EXTT9=
EXTT10=
EXTT11=
EXTT12=
EXTT13=
EXTT14=
EXTT15=
PLAYORDER=
